<mxfile host="app.diagrams.net" modified="2023-07-14T13:52:41.017Z" agent="Mozilla/5.0 (iPhone; CPU iPhone OS 16_3 like Mac OS X) AppleWebKit/605.1.15 (KHTML, like Gecko) CriOS/113.0.5672.69 Mobile/15E148 Safari/604.1" version="21.6.2" etag="xc5yOhFZxwTTNcaH6jSF" type="github">
  <diagram name="第 1 页" id="sZP3JtfJDueqmlJV9PAo">
    <mxGraphModel>
      <root>
        <mxCell id="0" />
        <mxCell id="1" parent="0" />
      </root>
    </mxGraphModel>
  </diagram>
</mxfile>
